<?xml version="1.0" encoding="UTF-8"?><svg xmlns="http://www.w3.org/2000/svg" xmlns:xlink="http://www.w3.org/1999/xlink" fill-opacity="1" color-rendering="auto" color-interpolation="auto" text-rendering="auto" stroke="black" stroke-linecap="square" width="344" stroke-miterlimit="10" shape-rendering="auto" stroke-opacity="1" fill="black" stroke-dasharray="none" font-weight="normal" stroke-width="1" height="419" font-family="'Dialog'" font-style="normal" stroke-linejoin="miter" font-size="12px" stroke-dashoffset="0" image-rendering="auto">
  <!--Generated by ySVG 2.5-->
  <defs id="genericDefs"/>
  <g>
    <defs id="defs1">
      <clipPath clipPathUnits="userSpaceOnUse" id="clipPath1">
        <path d="M0 0 L344 0 L344 419 L0 419 L0 0 Z"/>
      </clipPath>
      <clipPath clipPathUnits="userSpaceOnUse" id="clipPath2">
        <path d="M452 254 L796 254 L796 673 L452 673 L452 254 Z"/>
      </clipPath>
    </defs>
    <g fill="white" text-rendering="geometricPrecision" shape-rendering="geometricPrecision" transform="translate(-452,-254)" stroke="white">
      <rect x="452" width="344" height="419" y="254" clip-path="url(#clipPath2)" stroke="none"/>
    </g>
    <g fill="white" text-rendering="geometricPrecision" shape-rendering="geometricPrecision" transform="matrix(1,0,0,1,-452,-254)" stroke="white">
      <path d="M467.176 279.424 Q467.176 269.424 477.176 269.424 L770.392 269.424 Q780.392 269.424 780.392 279.424 L780.392 522.528 Q780.392 532.528 770.392 532.528 L477.176 532.528 Q467.176 532.528 467.176 522.528 Z" stroke="none" clip-path="url(#clipPath2)"/>
    </g>
    <g text-rendering="geometricPrecision" stroke-miterlimit="1.45" shape-rendering="geometricPrecision" transform="matrix(1,0,0,1,-452,-254)" stroke-linecap="butt">
      <path fill="none" d="M467.176 279.424 Q467.176 269.424 477.176 269.424 L770.392 269.424 Q780.392 269.424 780.392 279.424 L780.392 522.528 Q780.392 532.528 770.392 532.528 L477.176 532.528 Q467.176 532.528 467.176 522.528 Z" clip-path="url(#clipPath2)"/>
      <text x="473.176" xml:space="preserve" y="286.5627" clip-path="url(#clipPath2)" font-family="'DejaVu Sans Mono'" stroke="none">OverConsumption</text>
      <text x="509.299" xml:space="preserve" y="300.5314" clip-path="url(#clipPath2)" font-family="'DejaVu Sans Mono'" stroke="none">Cycle</text>
    </g>
    <g fill="white" text-rendering="geometricPrecision" shape-rendering="geometricPrecision" transform="matrix(1,0,0,1,-452,-254)" stroke="white">
      <path d="M594.968 295.144 Q594.968 285.144 604.968 285.144 L680.968 285.144 Q690.968 285.144 690.968 295.144 L690.968 315.144 Q690.968 325.144 680.968 325.144 L604.968 325.144 Q594.968 325.144 594.968 315.144 Z" stroke="none" clip-path="url(#clipPath2)"/>
    </g>
    <g text-rendering="geometricPrecision" stroke-miterlimit="1.45" shape-rendering="geometricPrecision" transform="matrix(1,0,0,1,-452,-254)" stroke-linecap="butt">
      <path fill="none" d="M594.968 295.144 Q594.968 285.144 604.968 285.144 L680.968 285.144 Q690.968 285.144 690.968 295.144 L690.968 315.144 Q690.968 325.144 680.968 325.144 L604.968 325.144 Q594.968 325.144 594.968 315.144 Z" clip-path="url(#clipPath2)"/>
      <text x="624.9065" xml:space="preserve" y="309.2983" clip-path="url(#clipPath2)" font-family="'DejaVu Sans Mono'" stroke="none">Human</text>
    </g>
    <g fill="white" text-rendering="geometricPrecision" shape-rendering="geometricPrecision" transform="matrix(1,0,0,1,-452,-254)" stroke="white">
      <path d="M654.668 357.384 Q654.668 347.384 664.668 347.384 L740.668 347.384 Q750.668 347.384 750.668 357.384 L750.668 377.384 Q750.668 387.384 740.668 387.384 L664.668 387.384 Q654.668 387.384 654.668 377.384 Z" stroke="none" clip-path="url(#clipPath2)"/>
    </g>
    <g text-rendering="geometricPrecision" stroke-miterlimit="1.45" shape-rendering="geometricPrecision" transform="matrix(1,0,0,1,-452,-254)" stroke-linecap="butt">
      <path fill="none" d="M654.668 357.384 Q654.668 347.384 664.668 347.384 L740.668 347.384 Q750.668 347.384 750.668 357.384 L750.668 377.384 Q750.668 387.384 740.668 387.384 L664.668 387.384 Q654.668 387.384 654.668 377.384 Z" clip-path="url(#clipPath2)"/>
      <text x="662.9327" xml:space="preserve" y="364.5539" clip-path="url(#clipPath2)" font-family="'DejaVu Sans Mono'" stroke="none">Consumption</text>
      <text x="666.545" xml:space="preserve" y="378.5227" clip-path="url(#clipPath2)" font-family="'DejaVu Sans Mono'" stroke="none">Propaganda</text>
    </g>
    <g fill="white" text-rendering="geometricPrecision" shape-rendering="geometricPrecision" transform="matrix(1,0,0,1,-452,-254)" stroke="white">
      <path d="M594.968 419.624 Q594.968 409.624 604.968 409.624 L680.968 409.624 Q690.968 409.624 690.968 419.624 L690.968 439.624 Q690.968 449.624 680.968 449.624 L604.968 449.624 Q594.968 449.624 594.968 439.624 Z" stroke="none" clip-path="url(#clipPath2)"/>
    </g>
    <g text-rendering="geometricPrecision" stroke-miterlimit="1.45" shape-rendering="geometricPrecision" transform="matrix(1,0,0,1,-452,-254)" stroke-linecap="butt">
      <path fill="none" d="M594.968 419.624 Q594.968 409.624 604.968 409.624 L680.968 409.624 Q690.968 409.624 690.968 419.624 L690.968 439.624 Q690.968 449.624 680.968 449.624 L604.968 449.624 Q594.968 449.624 594.968 439.624 Z" clip-path="url(#clipPath2)"/>
      <text x="628.5188" xml:space="preserve" y="426.7939" clip-path="url(#clipPath2)" font-family="'DejaVu Sans Mono'" stroke="none">Over</text>
      <text x="603.2327" xml:space="preserve" y="440.7627" clip-path="url(#clipPath2)" font-family="'DejaVu Sans Mono'" stroke="none">Consumption</text>
    </g>
    <g fill="white" text-rendering="geometricPrecision" shape-rendering="geometricPrecision" transform="matrix(1,0,0,1,-452,-254)" stroke="white">
      <path d="M536.958 481.864 Q536.958 471.864 546.958 471.864 L622.958 471.864 Q632.958 471.864 632.958 481.864 L632.958 514.024 Q632.958 524.024 622.958 524.024 L546.958 524.024 Q536.958 524.024 536.958 514.024 Z" stroke="none" clip-path="url(#clipPath2)"/>
    </g>
    <g text-rendering="geometricPrecision" stroke-miterlimit="1.45" shape-rendering="geometricPrecision" transform="matrix(1,0,0,1,-452,-254)" stroke-linecap="butt">
      <path fill="none" d="M536.958 481.864 Q536.958 471.864 546.958 471.864 L622.958 471.864 Q632.958 471.864 632.958 481.864 L632.958 514.024 Q632.958 524.024 622.958 524.024 L546.958 524.024 Q536.958 524.024 536.958 514.024 Z" clip-path="url(#clipPath2)"/>
      <text x="552.4473" xml:space="preserve" y="488.1295" clip-path="url(#clipPath2)" font-family="'DejaVu Sans Mono'" stroke="none">Depletion</text>
      <text x="548.835" xml:space="preserve" y="502.0983" clip-path="url(#clipPath2)" font-family="'DejaVu Sans Mono'" stroke="none">of Natural</text>
      <text x="552.4473" xml:space="preserve" y="516.067" clip-path="url(#clipPath2)" font-family="'DejaVu Sans Mono'" stroke="none">Resources</text>
    </g>
    <g fill="white" text-rendering="geometricPrecision" shape-rendering="geometricPrecision" transform="matrix(1,0,0,1,-452,-254)" stroke="white">
      <path d="M467.176 564.024 Q467.176 554.024 477.176 554.024 L770.392 554.024 Q780.392 554.024 780.392 564.024 L780.392 584.024 Q780.392 594.024 770.392 594.024 L477.176 594.024 Q467.176 594.024 467.176 584.024 Z" stroke="none" clip-path="url(#clipPath2)"/>
    </g>
    <g text-rendering="geometricPrecision" stroke-miterlimit="1.45" shape-rendering="geometricPrecision" transform="matrix(1,0,0,1,-452,-254)" stroke-linecap="butt">
      <path fill="none" d="M467.176 564.024 Q467.176 554.024 477.176 554.024 L770.392 554.024 Q780.392 554.024 780.392 564.024 L780.392 584.024 Q780.392 594.024 770.392 594.024 L477.176 594.024 Q467.176 594.024 467.176 584.024 Z" clip-path="url(#clipPath2)"/>
      <text x="529.8641" xml:space="preserve" y="578.1783" clip-path="url(#clipPath2)" font-family="'DejaVu Sans Mono'" stroke="none">Global Natural Catastrophe</text>
    </g>
    <g fill="white" text-rendering="geometricPrecision" shape-rendering="geometricPrecision" transform="matrix(1,0,0,1,-452,-254)" stroke="white">
      <path d="M467.176 627.84 Q467.176 617.84 477.176 617.84 L770.392 617.84 Q780.392 617.84 780.392 627.84 L780.392 647.84 Q780.392 657.84 770.392 657.84 L477.176 657.84 Q467.176 657.84 467.176 647.84 Z" stroke="none" clip-path="url(#clipPath2)"/>
    </g>
    <g text-rendering="geometricPrecision" stroke-miterlimit="1.45" shape-rendering="geometricPrecision" transform="matrix(1,0,0,1,-452,-254)" stroke-linecap="butt">
      <path fill="none" d="M467.176 627.84 Q467.176 617.84 477.176 617.84 L770.392 617.84 Q780.392 617.84 780.392 627.84 L780.392 647.84 Q780.392 657.84 770.392 657.84 L477.176 657.84 Q467.176 657.84 467.176 647.84 Z" clip-path="url(#clipPath2)"/>
      <text x="562.3748" xml:space="preserve" y="641.9943" clip-path="url(#clipPath2)" font-family="'DejaVu Sans Mono'" stroke="none">Human Catastrophe</text>
    </g>
    <g fill="white" text-rendering="geometricPrecision" shape-rendering="geometricPrecision" transform="matrix(1,0,0,1,-452,-254)" stroke="white">
      <path d="M535.268 357.384 Q535.268 347.384 545.268 347.384 L621.268 347.384 Q631.268 347.384 631.268 357.384 L631.268 377.384 Q631.268 387.384 621.268 387.384 L545.268 387.384 Q535.268 387.384 535.268 377.384 Z" stroke="none" clip-path="url(#clipPath2)"/>
    </g>
    <g text-rendering="geometricPrecision" stroke-miterlimit="1.45" shape-rendering="geometricPrecision" transform="matrix(1,0,0,1,-452,-254)" stroke-linecap="butt">
      <path fill="none" d="M535.268 357.384 Q535.268 347.384 545.268 347.384 L621.268 347.384 Q631.268 347.384 631.268 357.384 L631.268 377.384 Q631.268 387.384 621.268 387.384 L545.268 387.384 Q535.268 387.384 535.268 377.384 Z" clip-path="url(#clipPath2)"/>
      <text x="547.145" xml:space="preserve" y="364.5539" clip-path="url(#clipPath2)" font-family="'DejaVu Sans Mono'" stroke="none">Increasing</text>
      <text x="547.145" xml:space="preserve" y="378.5227" clip-path="url(#clipPath2)" font-family="'DejaVu Sans Mono'" stroke="none">Production</text>
    </g>
    <g fill="white" text-rendering="geometricPrecision" shape-rendering="geometricPrecision" transform="matrix(1,0,0,1,-452,-254)" stroke="white">
      <path d="M478.948 419.624 Q478.948 409.624 488.948 409.624 L564.948 409.624 Q574.948 409.624 574.948 419.624 L574.948 439.624 Q574.948 449.624 564.948 449.624 L488.948 449.624 Q478.948 449.624 478.948 439.624 Z" stroke="none" clip-path="url(#clipPath2)"/>
    </g>
    <g text-rendering="geometricPrecision" stroke-miterlimit="1.45" shape-rendering="geometricPrecision" transform="matrix(1,0,0,1,-452,-254)" stroke-linecap="butt">
      <path fill="none" d="M478.948 419.624 Q478.948 409.624 488.948 409.624 L564.948 409.624 Q574.948 409.624 574.948 419.624 L574.948 439.624 Q574.948 449.624 564.948 449.624 L488.948 449.624 Q478.948 449.624 478.948 439.624 Z" clip-path="url(#clipPath2)"/>
      <text x="501.6619" xml:space="preserve" y="426.7939" clip-path="url(#clipPath2)" font-family="'DejaVu Sans Mono'" stroke="none">Natural</text>
      <text x="494.4373" xml:space="preserve" y="440.7627" clip-path="url(#clipPath2)" font-family="'DejaVu Sans Mono'" stroke="none">Resources</text>
    </g>
    <g text-rendering="geometricPrecision" stroke-miterlimit="1.45" shape-rendering="geometricPrecision" transform="matrix(1,0,0,1,-452,-254)" stroke-linecap="butt">
      <path fill="none" d="M662.1781 325.1714 L677.933 341.5967" clip-path="url(#clipPath2)"/>
    </g>
    <g text-rendering="geometricPrecision" stroke-miterlimit="1.45" shape-rendering="geometricPrecision" transform="matrix(1,0,0,1,-452,-254)" stroke-linecap="butt">
      <path d="M683.4709 347.3701 L678.7725 335.2488 L677.2408 340.875 L671.5557 342.1711 Z" stroke="none" clip-path="url(#clipPath2)"/>
      <path fill="none" d="M683.4579 387.4114 L667.7029 403.8367" clip-path="url(#clipPath2)"/>
      <path d="M662.1651 409.6101 L674.0803 404.4111 L668.3951 403.115 L666.8635 397.4889 Z" clip-path="url(#clipPath2)" stroke="none"/>
      <path fill="none" d="M642.968 325.1714 L642.968 401.6056" clip-path="url(#clipPath2)"/>
      <path d="M642.968 409.6056 L647.968 397.6056 L642.968 400.6056 L637.968 397.6056 Z" clip-path="url(#clipPath2)" stroke="none"/>
      <path fill="none" d="M690.949 429.624 L770.668 429.624 L770.668 305.144 L698.949 305.144" clip-path="url(#clipPath2)"/>
      <path d="M690.949 305.144 L702.949 310.144 L699.949 305.144 L702.949 300.144 Z" clip-path="url(#clipPath2)" stroke="none"/>
      <text x="697.7233" xml:space="preserve" y="423.4583" clip-path="url(#clipPath2)" font-family="'DejaVu Sans Mono'" stroke="none">income</text>
      <path fill="none" d="M626.0012 449.6063 L612.2809 465.7651" clip-path="url(#clipPath2)"/>
      <path d="M607.1029 471.8633 L618.6813 465.9522 L612.9282 465.0028 L611.0585 459.4797 Z" clip-path="url(#clipPath2)" stroke="none"/>
      <path fill="none" d="M623.784 532.4941 L623.784 546.0297" clip-path="url(#clipPath2)"/>
      <path d="M623.784 554.0297 L628.784 542.0297 L623.784 545.0297 L618.784 542.0297 Z" clip-path="url(#clipPath2)" stroke="none"/>
      <path fill="none" d="M623.784 593.9977 L623.784 609.8455" clip-path="url(#clipPath2)"/>
      <path d="M623.784 617.8455 L628.784 605.8455 L623.784 608.8455 L618.784 605.8455 Z" clip-path="url(#clipPath2)" stroke="none"/>
      <path fill="none" d="M623.7579 325.1714 L608.0029 341.5967" clip-path="url(#clipPath2)"/>
      <path d="M602.4651 347.3701 L614.3802 342.1711 L608.6951 340.875 L607.1635 335.2488 Z" clip-path="url(#clipPath2)" stroke="none"/>
      <path fill="none" d="M602.4781 387.4114 L618.2331 403.8367" clip-path="url(#clipPath2)"/>
      <path d="M623.7709 409.6102 L619.0726 397.4889 L617.5408 403.115 L611.8558 404.4111 Z" clip-path="url(#clipPath2)" stroke="none"/>
      <path fill="none" d="M559.7778 393.3434 L550.426 403.6782" clip-path="url(#clipPath2)"/>
      <path d="M565.1455 387.4114 L553.3865 392.9545 L559.1068 394.0848 L560.8014 399.6641 Z" clip-path="url(#clipPath2)" stroke="none"/>
      <path d="M545.0582 409.6101 L556.8173 404.067 L551.0969 402.9367 L549.4023 397.3574 Z" clip-path="url(#clipPath2)" stroke="none"/>
      <path fill="none" d="M543.9148 449.6063 L557.6351 465.7651" clip-path="url(#clipPath2)"/>
      <path d="M562.8131 471.8633 L558.8575 459.4797 L556.9879 465.0028 L551.2347 465.9522 Z" clip-path="url(#clipPath2)" stroke="none"/>
    </g>
  </g>
</svg>
