<?xml version="1.0" encoding="UTF-8"?><svg xmlns="http://www.w3.org/2000/svg" xmlns:xlink="http://www.w3.org/1999/xlink" fill-opacity="1" color-rendering="auto" color-interpolation="auto" text-rendering="auto" stroke="black" stroke-linecap="square" width="336" stroke-miterlimit="10" shape-rendering="auto" stroke-opacity="1" fill="black" stroke-dasharray="none" font-weight="normal" stroke-width="1" height="201" font-family="'Dialog'" font-style="normal" stroke-linejoin="miter" font-size="12px" stroke-dashoffset="0" image-rendering="auto">
  <!--Generated by ySVG 2.5-->
  <defs id="genericDefs"/>
  <g>
    <defs id="defs1">
      <clipPath clipPathUnits="userSpaceOnUse" id="clipPath1">
        <path d="M0 0 L336 0 L336 201 L0 201 L0 0 Z"/>
      </clipPath>
      <clipPath clipPathUnits="userSpaceOnUse" id="clipPath2">
        <path d="M618 458 L954 458 L954 659 L618 659 L618 458 Z"/>
      </clipPath>
    </defs>
    <g fill="white" text-rendering="geometricPrecision" shape-rendering="geometricPrecision" transform="translate(-618,-458)" stroke="white">
      <rect x="618" width="336" height="201" y="458" clip-path="url(#clipPath2)" stroke="none"/>
    </g>
    <g fill="white" text-rendering="geometricPrecision" shape-rendering="geometricPrecision" transform="matrix(1,0,0,1,-618,-458)" stroke="white">
      <path d="M759.268 483.7573 Q759.268 473.7573 769.268 473.7573 L845.268 473.7573 Q855.268 473.7573 855.268 483.7573 L855.268 503.7573 Q855.268 513.7573 845.268 513.7573 L769.268 513.7573 Q759.268 513.7573 759.268 503.7573 Z" stroke="none" clip-path="url(#clipPath2)"/>
    </g>
    <g text-rendering="geometricPrecision" stroke-miterlimit="1.45" shape-rendering="geometricPrecision" transform="matrix(1,0,0,1,-618,-458)" stroke-linecap="butt">
      <path fill="none" d="M759.268 483.7573 Q759.268 473.7573 769.268 473.7573 L845.268 473.7573 Q855.268 473.7573 855.268 483.7573 L855.268 503.7573 Q855.268 513.7573 845.268 513.7573 L769.268 513.7573 Q759.268 513.7573 759.268 503.7573 Z" clip-path="url(#clipPath2)"/>
      <text x="789.2065" xml:space="preserve" y="497.9116" clip-path="url(#clipPath2)" font-family="'DejaVu Sans Mono'" stroke="none">Human</text>
    </g>
    <g fill="white" text-rendering="geometricPrecision" shape-rendering="geometricPrecision" transform="matrix(1,0,0,1,-618,-458)" stroke="white">
      <path d="M759.268 613.8373 Q759.268 603.8373 769.268 603.8373 L845.268 603.8373 Q855.268 603.8373 855.268 613.8373 L855.268 633.8373 Q855.268 643.8373 845.268 643.8373 L769.268 643.8373 Q759.268 643.8373 759.268 633.8373 Z" stroke="none" clip-path="url(#clipPath2)"/>
    </g>
    <g text-rendering="geometricPrecision" stroke-miterlimit="1.45" shape-rendering="geometricPrecision" transform="matrix(1,0,0,1,-618,-458)" stroke-linecap="butt">
      <path fill="none" d="M759.268 613.8373 Q759.268 603.8373 769.268 603.8373 L845.268 603.8373 Q855.268 603.8373 855.268 613.8373 L855.268 633.8373 Q855.268 643.8373 845.268 643.8373 L769.268 643.8373 Q759.268 643.8373 759.268 633.8373 Z" clip-path="url(#clipPath2)"/>
      <text x="785.5942" xml:space="preserve" y="621.0073" clip-path="url(#clipPath2)" font-family="'DejaVu Sans Mono'" stroke="none">Modest</text>
      <text x="767.5327" xml:space="preserve" y="634.976" clip-path="url(#clipPath2)" font-family="'DejaVu Sans Mono'" stroke="none">Consumption</text>
    </g>
    <g fill="white" text-rendering="geometricPrecision" shape-rendering="geometricPrecision" transform="matrix(1,0,0,1,-618,-458)" stroke="white">
      <path d="M696.268 548.7974 Q696.268 538.7974 706.268 538.7974 L782.268 538.7974 Q792.268 538.7974 792.268 548.7974 L792.268 568.7974 Q792.268 578.7974 782.268 578.7974 L706.268 578.7974 Q696.268 578.7974 696.268 568.7974 Z" stroke="none" clip-path="url(#clipPath2)"/>
    </g>
    <g text-rendering="geometricPrecision" stroke-miterlimit="1.45" shape-rendering="geometricPrecision" transform="matrix(1,0,0,1,-618,-458)" stroke-linecap="butt">
      <path fill="none" d="M696.268 548.7974 Q696.268 538.7974 706.268 538.7974 L782.268 538.7974 Q792.268 538.7974 792.268 548.7974 L792.268 568.7974 Q792.268 578.7974 782.268 578.7974 L706.268 578.7974 Q696.268 578.7974 696.268 568.7974 Z" clip-path="url(#clipPath2)"/>
      <text x="708.145" xml:space="preserve" y="562.9517" clip-path="url(#clipPath2)" font-family="'DejaVu Sans Mono'" stroke="none">Production</text>
    </g>
    <g fill="white" text-rendering="geometricPrecision" shape-rendering="geometricPrecision" transform="matrix(1,0,0,1,-618,-458)" stroke="white">
      <path d="M633.268 483.7573 Q633.268 473.7573 643.268 473.7573 L719.268 473.7573 Q729.268 473.7573 729.268 483.7573 L729.268 503.7573 Q729.268 513.7573 719.268 513.7573 L643.268 513.7573 Q633.268 513.7573 633.268 503.7573 Z" stroke="none" clip-path="url(#clipPath2)"/>
    </g>
    <g text-rendering="geometricPrecision" stroke-miterlimit="1.45" shape-rendering="geometricPrecision" transform="matrix(1,0,0,1,-618,-458)" stroke-linecap="butt">
      <path fill="none" d="M633.268 483.7573 Q633.268 473.7573 643.268 473.7573 L719.268 473.7573 Q729.268 473.7573 729.268 483.7573 L729.268 503.7573 Q729.268 513.7573 719.268 513.7573 L643.268 513.7573 Q633.268 513.7573 633.268 503.7573 Z" clip-path="url(#clipPath2)"/>
      <text x="659.5942" xml:space="preserve" y="497.9116" clip-path="url(#clipPath2)" font-family="'DejaVu Sans Mono'" stroke="none">Nature</text>
    </g>
    <g fill="white" text-rendering="geometricPrecision" shape-rendering="geometricPrecision" transform="matrix(1,0,0,1,-618,-458)" stroke="white">
      <path d="M822.268 548.7974 Q822.268 538.7974 832.268 538.7974 L908.268 538.7974 Q918.268 538.7974 918.268 548.7974 L918.268 568.7974 Q918.268 578.7974 908.268 578.7974 L832.268 578.7974 Q822.268 578.7974 822.268 568.7974 Z" stroke="none" clip-path="url(#clipPath2)"/>
    </g>
    <g text-rendering="geometricPrecision" stroke-miterlimit="1.45" shape-rendering="geometricPrecision" transform="matrix(1,0,0,1,-618,-458)" stroke-linecap="butt">
      <path fill="none" d="M822.268 548.7974 Q822.268 538.7974 832.268 538.7974 L908.268 538.7974 Q918.268 538.7974 918.268 548.7974 L918.268 568.7974 Q918.268 578.7974 908.268 578.7974 L832.268 578.7974 Q822.268 578.7974 822.268 568.7974 Z" clip-path="url(#clipPath2)"/>
      <text x="837.7573" xml:space="preserve" y="555.9673" clip-path="url(#clipPath2)" font-family="'DejaVu Sans Mono'" stroke="none">Behaviour</text>
      <text x="834.145" xml:space="preserve" y="569.936" clip-path="url(#clipPath2)" font-family="'DejaVu Sans Mono'" stroke="none">Propaganda</text>
    </g>
    <g text-rendering="geometricPrecision" stroke-miterlimit="1.45" shape-rendering="geometricPrecision" transform="matrix(1,0,0,1,-618,-458)" stroke-linecap="butt">
      <path fill="none" d="M807.268 513.733 L807.268 595.811" clip-path="url(#clipPath2)"/>
    </g>
    <g text-rendering="geometricPrecision" stroke-miterlimit="1.45" shape-rendering="geometricPrecision" transform="matrix(1,0,0,1,-618,-458)" stroke-linecap="butt">
      <path d="M807.268 603.811 L812.268 591.811 L807.268 594.811 L802.268 591.811 Z" stroke="none" clip-path="url(#clipPath2)"/>
      <path fill="none" d="M855.2736 623.8373 L938.268 623.8373 L938.268 493.7573 L863.2736 493.7573" clip-path="url(#clipPath2)"/>
      <path d="M855.2736 493.7573 L867.2736 498.7573 L864.2736 493.7573 L867.2736 488.7573 Z" clip-path="url(#clipPath2)" stroke="none"/>
      <text x="862.268" xml:space="preserve" y="617.0316" clip-path="url(#clipPath2)" font-family="'DejaVu Sans Mono'" stroke="none">income</text>
      <path fill="none" d="M787.9189 513.733 L769.2084 533.0494" clip-path="url(#clipPath2)"/>
      <path d="M763.6423 538.7957 L775.5828 533.655 L769.9041 532.3311 L768.4 526.6975 Z" clip-path="url(#clipPath2)" stroke="none"/>
      <path fill="none" d="M763.6171 578.773 L782.3276 598.0894" clip-path="url(#clipPath2)"/>
      <path d="M787.8937 603.8356 L783.136 591.7375 L781.6319 597.3711 L775.9532 598.695 Z" clip-path="url(#clipPath2)" stroke="none"/>
      <path fill="none" d="M719.3528 533.0754 L706.2084 519.5053" clip-path="url(#clipPath2)"/>
      <path d="M724.9189 538.8217 L720.1612 526.7235 L718.6571 532.3572 L712.9784 533.6811 Z" clip-path="url(#clipPath2)" stroke="none"/>
      <path d="M700.6423 513.759 L705.4 525.8572 L706.9041 520.2236 L712.5828 518.8997 Z" clip-path="url(#clipPath2)" stroke="none"/>
      <path fill="none" d="M759.249 493.7573 L737.2827 493.7573" clip-path="url(#clipPath2)"/>
      <path d="M729.2827 493.7573 L741.2827 498.7573 L738.2827 493.7573 L741.2827 488.7573 Z" clip-path="url(#clipPath2)" stroke="none"/>
      <path fill="none" d="M826.6171 513.733 L845.3276 533.0494" clip-path="url(#clipPath2)"/>
      <path d="M850.8937 538.7957 L846.136 526.6975 L844.6319 532.3311 L838.9532 533.655 Z" clip-path="url(#clipPath2)" stroke="none"/>
      <path fill="none" d="M850.9189 578.773 L832.2084 598.0894" clip-path="url(#clipPath2)"/>
      <path d="M826.6423 603.8356 L838.5828 598.695 L832.9041 597.3711 L831.4 591.7375 Z" clip-path="url(#clipPath2)" stroke="none"/>
    </g>
  </g>
</svg>
